<?xml version="1.0" encoding="UTF-8"?>
<svg version="1.1" xmlns="http://www.w3.org/2000/svg" width="500" height="500">
<path d="M0 0 C2.67014706 0.02366849 5.33929534 0.02053094 8.00952148 0.01391602 C20.16675651 0.03400489 31.14178023 1.05611415 42.60913086 5.33618164 C43.34131836 5.58883789 44.07350586 5.84149414 44.82788086 6.10180664 C71.45794979 15.86616525 94.50618314 36.27919078 107.57397461 61.37133789 C108.82759934 63.75085955 110.21161619 66.03884271 111.60913086 68.33618164 C112.04612305 66.57854492 112.04612305 66.57854492 112.49194336 64.78540039 C117.64473689 44.74034994 127.53834943 28.67287649 145.23413086 17.14868164 C159.64473667 8.88178238 178.12215489 5.68120322 194.48413086 9.08618164 C195.8670162 9.47587927 197.24191023 9.89465718 198.60913086 10.33618164 C199.54885742 10.60430664 200.48858398 10.87243164 201.45678711 11.14868164 C213.26569342 14.73166206 221.85150681 20.73674127 230.60913086 29.33618164 C231.32198242 30.02454102 232.03483398 30.71290039 232.76928711 31.42211914 C245.25152417 44.36131671 249.94146994 61.77293078 249.98974609 79.31396484 C249.86888301 84.68939998 248.820457 88.885214 247.60913086 94.33618164 C265.42913086 94.33618164 283.24913086 94.33618164 301.60913086 94.33618164 C301.60913086 103.24618164 301.60913086 112.15618164 301.60913086 121.33618164 C298.96913086 121.33618164 296.32913086 121.33618164 293.60913086 121.33618164 C291.47241211 118.88696289 291.47241211 118.88696289 289.92163086 115.64868164 C286.62492818 109.3657281 284.27012737 105.01895644 277.29272461 102.72680664 C270.86706534 100.87285929 264.62223554 101.00437502 257.98413086 101.14868164 C256.78916992 101.1622168 255.59420898 101.17575195 254.36303711 101.18969727 C251.44458285 101.22471872 248.52710738 101.27383171 245.60913086 101.33618164 C244.8859668 102.81731445 244.8859668 102.81731445 244.14819336 104.32836914 C243.51038509 105.62274474 242.87235257 106.91700985 242.23413086 108.21118164 C241.91702148 108.8621582 241.59991211 109.51313477 241.27319336 110.18383789 C239.92022965 112.91795205 238.78140567 115.16390683 236.60913086 117.33618164 C236.23705732 120.05234028 236.23705732 120.05234028 236.19506836 123.21899414 C236.15945801 124.26974121 236.12384766 125.32048828 236.0871582 126.40307617 C236.03615967 128.41183838 236.03615967 128.41183838 235.98413086 130.46118164 C235.86038086 134.70993164 235.73663086 138.95868164 235.60913086 143.33618164 C246.82913086 143.33618164 258.04913086 143.33618164 269.60913086 143.33618164 C269.60913086 145.64618164 269.60913086 147.95618164 269.60913086 150.33618164 C258.38913086 150.33618164 247.16913086 150.33618164 235.60913086 150.33618164 C234.84095381 165.53471888 234.84095381 165.53471888 241.62866211 178.17211914 C244.17279254 180.95209598 245.76959189 184.04751574 247.42163086 187.39868164 C247.98495117 188.5240332 248.54827148 189.64938477 249.12866211 190.80883789 C250.74019871 194.64846202 251.69834989 198.27987421 252.60913086 202.33618164 C270.34167154 202.54510215 270.34167154 202.54510215 285.52709961 194.50805664 C288.9490077 190.2158855 291.30641317 185.29588129 293.60913086 180.33618164 C296.24913086 180.33618164 298.88913086 180.33618164 301.60913086 180.33618164 C301.60913086 189.24618164 301.60913086 198.15618164 301.60913086 207.33618164 C285.76913086 207.33618164 269.92913086 207.33618164 253.60913086 207.33618164 C253.93913086 208.65618164 254.26913086 209.97618164 254.60913086 211.33618164 C255.96172216 230.23557103 253.24698606 246.37891752 244.60913086 263.33618164 C243.94913086 263.33618164 243.28913086 263.33618164 242.60913086 263.33618164 C242.46475586 263.95493164 242.32038086 264.57368164 242.17163086 265.21118164 C241.60913086 267.33618164 241.60913086 267.33618164 240.60913086 269.33618164 C239.94913086 269.33618164 239.28913086 269.33618164 238.60913086 269.33618164 C238.33584961 269.92141602 238.06256836 270.50665039 237.78100586 271.10961914 C230.54206764 284.86360176 213.81251385 293.53590703 199.60913086 298.33618164 C193.64868198 299.98241897 188.04361245 300.62211561 181.87646484 300.56323242 C181.05585068 300.56352448 180.23523651 300.56381653 179.38975525 300.56411743 C176.71146599 300.56273816 174.03346451 300.547244 171.35522461 300.53149414 C169.48478853 300.52775901 167.61435048 300.5249144 165.74391174 300.5229187 C160.84653215 300.51532162 155.9492732 300.49570726 151.05194092 300.47351074 C146.04432812 300.45296732 141.03669562 300.44389889 136.02905273 300.43383789 C126.22235942 300.41245733 116.41575521 300.37836931 106.60913086 300.33618164 C106.60913086 298.35618164 106.60913086 296.37618164 106.60913086 294.33618164 C112.21913086 294.33618164 117.82913086 294.33618164 123.60913086 294.33618164 C123.60913086 287.07618164 123.60913086 279.81618164 123.60913086 272.33618164 C119.49444336 273.54274414 119.49444336 273.54274414 115.29663086 274.77368164 C108.34980831 276.72299466 101.85172365 278.19222949 94.60913086 278.33618164 C93.50577393 278.3806543 93.50577393 278.3806543 92.38012695 278.42602539 C69.44277144 279.31870317 49.91863823 274.95950201 32.37475586 259.34790039 C26.03005091 253.35449622 21.13595949 246.58353478 17.34472656 238.71044922 C15.84079245 236.11982864 15.84079245 236.11982864 13.19921875 235.74023438 C12.25296631 235.74998291 11.30671387 235.75973145 10.33178711 235.76977539 C9.27040527 235.76163818 8.20902344 235.75350098 7.11547852 235.74511719 C5.97900879 235.75454346 4.84253906 235.76396973 3.67163086 235.77368164 C-23.03980612 235.38385503 -48.35277056 228.27594933 -69.39086914 211.33618164 C-70.15778076 210.73531738 -70.15778076 210.73531738 -70.94018555 210.12231445 C-83.78698393 200.02537114 -93.30105555 188.49785978 -101.39086914 174.33618164 C-102.06118164 173.22114258 -102.73149414 172.10610352 -103.42211914 170.95727539 C-105.5558096 167.20799551 -107.04165151 163.3414071 -108.45336914 159.27368164 C-108.69635742 158.61174805 -108.9393457 157.94981445 -109.18969727 157.26782227 C-113.43582967 145.2052021 -114.88651952 133.46995233 -114.78198242 120.77807617 C-114.76593058 118.47001642 -114.78191045 116.16371935 -114.80102539 113.85571289 C-114.84046061 86.15726438 -105.14118802 61.44851919 -87.39086914 40.33618164 C-86.6187207 39.41192383 -85.84657227 38.48766602 -85.05102539 37.53540039 C-81.17465041 33.02815064 -81.17465041 33.02815064 -79.39086914 31.33618164 C-78.73086914 31.33618164 -78.07086914 31.33618164 -77.39086914 31.33618164 C-76.89586914 29.85118164 -76.89586914 29.85118164 -76.39086914 28.33618164 C-75.40086914 28.33618164 -74.41086914 28.33618164 -73.39086914 28.33618164 C-73.19879883 27.77543945 -73.00672852 27.21469727 -72.80883789 26.63696289 C-70.78207752 23.34836274 -67.88103367 21.58722476 -64.70336914 19.52368164 C-64.03781006 19.08717285 -63.37225098 18.65066406 -62.68652344 18.20092773 C-52.29436409 11.54808892 -41.20307593 6.87206 -29.39086914 3.33618164 C-28.57005859 3.06684814 -27.74924805 2.79751465 -26.90356445 2.52001953 C-17.96261767 -0.11814251 -9.2356301 -0.08748918 0 0 Z M-45.39086914 35.33618164 C-46.12176758 36.04387695 -46.85266602 36.75157227 -47.60571289 37.48071289 C-69.19889051 59.84354832 -74.80726166 93.68507348 -74.54321289 123.40649414 C-74.0249862 150.51703067 -64.75833916 174.99428446 -48.39086914 196.33618164 C-47.83657227 197.0593457 -47.28227539 197.78250977 -46.71118164 198.52758789 C-36.42465432 211.10274449 -20.41164338 219.84723993 -4.39086914 222.33618164 C-2.02535167 222.47098135 0.23765744 222.4370954 2.60913086 222.33618164 C-0.8175897 217.86151464 -4.23738715 214.769083 -9.07836914 211.83618164 C-9.69486328 211.45163818 -10.31135742 211.06709473 -10.9465332 210.67089844 C-12.75445564 209.54764553 -14.57068788 208.4394312 -16.39086914 207.33618164 C-17.3099707 206.77543945 -18.22907227 206.21469727 -19.17602539 205.63696289 C-20.77968032 204.66867045 -22.38756611 203.70733923 -24.00024414 202.75415039 C-25.72765841 201.72955663 -27.44525976 200.68835689 -29.15649414 199.63696289 C-30.05883789 199.08395508 -30.96118164 198.53094727 -31.89086914 197.96118164 C-32.70555664 197.45844727 -33.52024414 196.95571289 -34.35961914 196.43774414 C-36.29876814 195.17727539 -36.29876814 195.17727539 -38.39086914 195.33618164 C-38.72086914 194.34618164 -39.05086914 193.35618164 -39.39086914 192.33618164 C-40.05086914 192.33618164 -40.71086914 192.33618164 -41.39086914 192.33618164 C-41.06086914 190.02618164 -40.73086914 187.71618164 -40.39086914 185.33618164 C-19.41864892 181.46438714 4.33672093 194.72307713 22.01928711 204.84399414 C22.74543213 205.2592334 23.47157715 205.67447266 24.21972656 206.10229492 C25.61326205 206.90600693 27.00146638 207.7190573 28.38330078 208.54272461 C31.82923709 210.55097001 33.51859755 211.33618164 37.60913086 211.33618164 C51.11259357 203.06827201 61.7837395 188.89966003 67.60913086 174.33618164 C57.37913086 174.33618164 47.14913086 174.33618164 36.60913086 174.33618164 C36.60913086 172.35618164 36.60913086 170.37618164 36.60913086 168.33618164 C39.57913086 168.33618164 42.54913086 168.33618164 45.60913086 168.33618164 C42.17154824 158.70815552 38.37264474 149.27526606 34.29663086 139.89868164 C33.85206543 138.87379639 33.4075 137.84891113 32.94946289 136.79296875 C31.26129431 132.26036348 31.26129431 132.26036348 28.60913086 128.33618164 C27.13558738 128.24314146 25.65762495 128.21871899 24.18115234 128.22265625 C23.24025253 128.22273178 22.29935272 128.22280731 21.3299408 128.22288513 C20.30703445 128.22804642 19.28412811 128.2332077 18.23022461 128.23852539 C17.18842545 128.23994034 16.14662628 128.24135529 15.07325745 128.24281311 C11.73101992 128.24843084 8.38884829 128.26098634 5.04663086 128.27368164 C2.7868662 128.27869436 0.52710049 128.28325766 -1.73266602 128.28735352 C-7.28542305 128.29840603 -12.83814139 128.3151614 -18.39086914 128.33618164 C-20.52396571 132.5274981 -22.63620084 136.68862179 -24.35571289 141.07055664 C-24.67862305 141.88685547 -25.0015332 142.7031543 -25.33422852 143.54418945 C-25.66229492 144.38304687 -25.99036133 145.2219043 -26.32836914 146.08618164 C-27.02431608 147.84686235 -27.72092948 149.60727978 -28.41821289 151.36743164 C-28.75320801 152.2143457 -29.08820313 153.06125977 -29.43334961 153.93383789 C-31.35711349 158.76041529 -33.36766566 163.55052726 -35.39086914 168.33618164 C-33.74086914 168.33618164 -32.09086914 168.33618164 -30.39086914 168.33618164 C-30.39086914 170.31618164 -30.39086914 172.29618164 -30.39086914 174.33618164 C-36.99086914 174.33618164 -43.59086914 174.33618164 -50.39086914 174.33618164 C-50.39086914 172.35618164 -50.39086914 170.37618164 -50.39086914 168.33618164 C-48.74086914 168.33618164 -47.09086914 168.33618164 -45.39086914 168.33618164 C-40.29218512 156.80742783 -35.36222182 145.21266874 -30.50195312 133.58154297 C-29.32811061 130.77306309 -28.15161694 127.96570434 -26.97485352 125.15844727 C-23.63904446 117.18962365 -20.32083761 109.21784256 -17.14477539 101.18383789 C-15.54246518 97.14752138 -13.8928609 93.16273766 -12.06665039 89.22290039 C-7.9471002 80.3260567 -4.31736233 71.20995757 -0.57836914 62.14868164 C0.21767956 60.22347895 1.01390208 58.29834813 1.81030273 56.37329102 C3.74525116 51.69508097 5.67784226 47.01590368 7.60913086 42.33618164 C10.90913086 42.00618164 14.20913086 41.67618164 17.60913086 41.33618164 C18.16020508 43.10541992 18.16020508 43.10541992 18.72241211 44.91040039 C20.79276333 51.11660829 23.3754248 57.10678427 25.93481445 63.12268066 C27.3999781 66.56706042 28.85454153 70.01590272 30.30834961 73.46508789 C30.5950351 74.14489716 30.88172058 74.82470642 31.17709351 75.52511597 C33.86949797 81.92501751 36.4619755 88.36290653 38.98486328 94.83154297 C40.93546198 99.79531673 43.09495714 104.63736074 45.31958008 109.48413086 C47.45426171 114.20532565 49.43803272 118.98747427 51.42163086 123.77368164 C51.8517749 124.80775146 52.28191895 125.84182129 52.72509766 126.90722656 C55.85427698 134.45298265 58.89394912 142.0318235 61.90332031 149.62597656 C64.29040276 155.61930044 66.83059946 161.51195237 69.60913086 167.33618164 C79.16671307 159.18651523 79.80711539 136.34891331 80.84545898 124.68041992 C82.75101894 93.84773615 73.02934527 61.88640068 53.79663086 37.64868164 C52.71381836 36.50399414 52.71381836 36.50399414 51.60913086 35.33618164 C50.94913086 35.33618164 50.28913086 35.33618164 49.60913086 35.33618164 C48.61913086 33.35618164 48.61913086 33.35618164 47.60913086 31.33618164 C46.94913086 31.33618164 46.28913086 31.33618164 45.60913086 31.33618164 C45.11413086 29.85118164 45.11413086 29.85118164 44.60913086 28.33618164 C34.67270601 19.12633331 21.0207136 13.62005922 7.60913086 12.33618164 C6.70291992 12.24208008 5.79670898 12.14797852 4.86303711 12.05102539 C-15.16383245 10.99125889 -31.77861208 21.76265077 -45.39086914 35.33618164 Z M153.60913086 26.33618164 C141.24299389 40.47796904 135.38332156 58.10716041 135.48413086 76.77368164 C135.48026367 77.48588867 135.47639648 78.1980957 135.47241211 78.93188477 C135.0537515 87.19926109 135.0537515 87.19926109 137.60913086 94.33618164 C139.00539738 94.45723763 140.40719541 94.51578756 141.80834961 94.54711914 C169.61675393 95.37641603 189.85497623 103.2644361 209.60913086 123.33618164 C210.41350586 122.53180664 211.21788086 121.72743164 212.04663086 120.89868164 C213.23413086 119.71118164 214.42163086 118.52368164 215.60913086 117.33618164 C215.68238254 114.47350597 215.70151291 111.63546265 215.67163086 108.77368164 C215.66711914 107.96737305 215.66260742 107.16106445 215.65795898 106.33032227 C215.64613604 104.33224408 215.6282 102.33420381 215.60913086 100.33618164 C212.30913086 100.33618164 209.00913086 100.33618164 205.60913086 100.33618164 C205.60913086 98.35618164 205.60913086 96.37618164 205.60913086 94.33618164 C211.87913086 94.33618164 218.14913086 94.33618164 224.60913086 94.33618164 C226.33140509 80.55798782 227.47404895 65.58821851 222.60913086 52.33618164 C222.24561523 51.32426758 221.88209961 50.31235352 221.50756836 49.26977539 C218.9587448 42.70038821 215.81010454 36.98265164 211.60913086 31.33618164 C210.86663086 30.30493164 210.12413086 29.27368164 209.35913086 28.21118164 C201.62247154 20.12285599 191.92916612 14.86632693 180.60522461 14.14477539 C170.1973944 14.80968241 161.16392896 19.29996563 153.60913086 26.33618164 Z M4.60913086 72.33618164 C3.93817383 73.96813477 3.93817383 73.96813477 3.25366211 75.63305664 C-2.88816303 90.56525168 -9.12056338 105.45749001 -15.39086914 120.33618164 C-1.86086914 120.33618164 11.66913086 120.33618164 25.60913086 120.33618164 C22.62817087 111.98949366 19.8381098 104.46025274 16.08569336 96.57055664 C14.10190902 92.22512428 12.45365398 87.77574331 10.77709961 83.30493164 C9.28233429 79.50552816 7.51841537 75.94260794 5.60913086 72.33618164 C5.27913086 72.33618164 4.94913086 72.33618164 4.60913086 72.33618164 Z M139.60913086 102.33618164 C142.95125958 114.5573986 150.39680999 126.89651874 161.60913086 133.33618164 C162.23174805 133.72032227 162.85436523 134.10446289 163.49584961 134.50024414 C171.35646174 138.93280027 179.82452991 139.99365352 188.60913086 138.33618164 C186.64753571 128.5066499 175.85393787 118.63670843 167.78833008 113.08227539 C159.69329764 108.09551565 149.23860481 102.33618164 139.60913086 102.33618164 Z M122.60913086 114.33618164 C122.60913086 124.23618164 122.60913086 134.13618164 122.60913086 144.33618164 C136.79913086 144.33618164 150.98913086 144.33618164 165.60913086 144.33618164 C162.57651839 142.81987541 159.65283141 141.59650833 156.48291016 140.43505859 C143.39291892 135.54137255 134.6709026 127.8011755 125.60913086 117.33618164 C124.61913086 116.34618164 123.62913086 115.35618164 122.60913086 114.33618164 Z M122.60913086 151.33618164 C122.60913086 182.02618164 122.60913086 212.71618164 122.60913086 244.33618164 C122.93913086 244.33618164 123.26913086 244.33618164 123.60913086 244.33618164 C123.60913086 213.64618164 123.60913086 182.95618164 123.60913086 151.33618164 C123.27913086 151.33618164 122.94913086 151.33618164 122.60913086 151.33618164 Z M150.60913086 151.33618164 C150.60913086 180.70618164 150.60913086 210.07618164 150.60913086 240.33618164 C159.77389079 238.50322965 166.7497867 233.51475597 173.79663086 227.58618164 C174.37348633 227.1022998 174.9503418 226.61841797 175.54467773 226.11987305 C176.94347884 224.90760708 178.2824649 223.62699176 179.60913086 222.33618164 C179.60913086 221.67618164 179.60913086 221.01618164 179.60913086 220.33618164 C180.26913086 220.33618164 180.92913086 220.33618164 181.60913086 220.33618164 C181.60913086 219.67618164 181.60913086 219.01618164 181.60913086 218.33618164 C182.26913086 218.33618164 182.92913086 218.33618164 183.60913086 218.33618164 C195.0045376 204.20940163 198.54419261 187.14523727 199.16772461 169.46508789 C198.42137512 165.2844869 196.87949252 163.9810643 193.60913086 161.33618164 C180.57573104 152.9438586 165.90086085 149.63710053 150.60913086 151.33618164 Z M93.60913086 192.33618164 C92.22356579 193.76653868 90.90093866 195.25811428 89.60913086 196.77368164 C79.0738165 208.68682021 67.07154736 217.68091033 52.60913086 224.33618164 C52.26073802 227.29522093 52.26073802 227.29522093 53.93725586 228.70336914 C54.57147461 229.20094727 55.20569336 229.69852539 55.85913086 230.21118164 C60.46774234 234.04620477 64.40825433 238.34472121 68.39526367 242.80444336 C70.94372296 245.63129869 73.37127105 248.30177415 76.60913086 250.33618164 C77.26913086 250.33618164 77.92913086 250.33618164 78.60913086 250.33618164 C78.93913086 248.68618164 79.26913086 247.03618164 79.60913086 245.33618164 C87.52913086 244.84118164 87.52913086 244.84118164 95.60913086 244.33618164 C95.60913086 227.17618164 95.60913086 210.01618164 95.60913086 192.33618164 C94.94913086 192.33618164 94.28913086 192.33618164 93.60913086 192.33618164 Z M217.76538086 209.27758789 C217.21881836 210.14254883 216.67225586 211.00750977 216.10913086 211.89868164 C215.5200293 212.8074707 214.93092773 213.71625977 214.32397461 214.65258789 C213.75807617 215.53817383 213.19217773 216.42375977 212.60913086 217.33618164 C211.63889663 218.6760289 210.66103924 220.01043046 209.67163086 221.33618164 C207.42028792 224.00409704 207.42028792 224.00409704 207.60913086 226.33618164 C206.94913086 226.33618164 206.28913086 226.33618164 205.60913086 226.33618164 C205.60913086 226.99618164 205.60913086 227.65618164 205.60913086 228.33618164 C205.01229492 228.61075195 204.41545898 228.88532227 203.80053711 229.16821289 C201.70276497 230.28627683 200.27391487 231.41125539 198.54663086 233.02368164 C184.49924001 245.22586437 168.63066649 249.08348969 150.60913086 251.33618164 C150.60913086 265.52618164 150.60913086 279.71618164 150.60913086 294.33618164 C171.16695478 294.33618164 190.53195273 289.1367143 205.60913086 274.33618164 C210.46682706 269.45274356 210.46682706 269.45274356 212.60913086 263.33618164 C213.26913086 263.33618164 213.92913086 263.33618164 214.60913086 263.33618164 C224.03425067 245.29189052 229.18414511 228.99181956 225.60913086 208.33618164 C224.5630463 207.09152995 224.5630463 207.09152995 222.26538086 206.98852539 C219.4741354 207.07034233 219.4741354 207.07034233 217.76538086 209.27758789 Z M80.60913086 251.33618164 C80.60913086 251.66618164 80.60913086 251.99618164 80.60913086 252.33618164 C88.10914322 253.95780593 96.1091185 253.95780593 103.60913086 252.33618164 C103.60913086 252.00618164 103.60913086 251.67618164 103.60913086 251.33618164 C96.01913086 251.33618164 88.42913086 251.33618164 80.60913086 251.33618164 Z " fill="#EEEEEE" transform="translate(148.390869140625,99.663818359375)"/>
</svg>
